<?xml version="1.0" encoding="UTF-8" ?>
<!DOCTYPE svg PUBLIC "-//W3C//DTD SVG 1.1//EN" "http://www.w3.org/Graphics/SVG/1.1/DTD/svg11.dtd">
<svg width="300pt" height="300pt" viewBox="0 0 300 300" version="1.1" xmlns="http://www.w3.org/2000/svg">
<path fill="#ffffff" d=" M 0.00 0.00 L 183.97 0.00 C 175.50 4.45 166.34 7.27 157.44 10.67 C 154.80 11.48 152.20 12.43 149.58 13.29 C 143.59 16.18 137.15 18.10 131.40 21.49 C 122.62 26.61 114.37 32.91 108.10 40.97 C 103.50 47.13 99.99 54.09 97.61 61.38 C 96.87 63.41 96.15 65.45 95.44 67.50 C 93.38 64.43 91.54 61.20 90.41 57.67 C 88.99 51.61 89.57 45.42 90.36 39.32 C 88.01 41.32 85.68 43.35 83.35 45.37 C 80.62 49.51 78.12 53.86 76.59 58.60 C 74.45 66.40 75.88 74.52 77.12 82.35 C 72.40 76.88 67.01 71.91 63.33 65.63 C 60.16 60.37 57.06 55.05 54.31 49.56 C 51.08 43.19 48.64 36.45 44.98 30.30 C 44.33 29.98 43.03 29.33 42.38 29.00 C 41.10 28.99 39.83 28.98 38.56 28.98 C 38.30 29.23 37.77 29.74 37.51 30.00 C 36.22 31.26 34.94 32.52 33.66 33.78 C 34.83 36.70 36.10 39.59 37.26 42.52 C 43.31 54.36 50.48 65.72 59.28 75.72 C 63.27 79.92 67.45 83.95 71.66 87.93 C 66.96 88.05 62.22 87.78 57.54 88.45 C 49.63 90.82 42.60 95.32 36.87 101.23 C 43.47 100.78 50.30 100.41 56.48 103.20 C 58.03 104.32 59.63 105.38 61.22 106.44 C 47.05 113.42 36.47 126.29 30.16 140.57 C 30.06 141.01 29.84 141.88 29.73 142.32 C 28.78 144.69 28.02 147.14 27.25 149.58 C 26.72 151.56 26.14 153.53 25.58 155.50 C 21.84 176.32 18.85 197.37 12.61 217.62 C 21.83 208.59 33.19 202.25 43.56 194.69 C 49.94 190.87 55.28 185.64 60.21 180.13 C 63.64 176.09 66.05 171.34 69.20 167.11 C 68.74 168.92 68.20 170.72 67.65 172.51 C 65.04 180.77 66.27 189.49 65.97 197.99 C 65.66 203.97 67.19 209.80 68.63 215.54 C 69.33 218.90 70.38 222.17 71.27 225.48 C 72.70 228.91 74.16 232.33 75.77 235.69 C 75.87 236.11 76.07 236.95 76.17 237.37 C 79.49 242.38 81.60 248.07 84.81 253.16 C 88.13 258.42 91.58 263.60 95.34 268.57 C 103.15 279.22 110.57 290.22 119.48 300.00 L 0.00 300.00 L 0.00 0.00 Z" />
<path fill="#f3522b" d=" M 183.97 0.00 L 184.43 0.00 C 177.77 8.00 170.31 15.87 167.25 26.09 C 161.82 43.88 153.68 61.68 139.47 74.17 C 146.79 69.41 154.58 65.18 163.14 63.17 C 172.92 60.88 182.88 58.57 192.99 58.98 C 199.61 59.15 206.26 58.62 212.85 59.38 C 228.34 61.72 243.95 62.92 259.49 64.74 C 261.05 67.81 262.62 70.90 263.89 74.12 L 264.05 74.58 C 249.69 80.86 235.87 88.70 224.07 99.09 C 210.59 110.36 194.60 118.52 177.51 122.67 C 169.11 125.34 160.25 125.58 151.56 126.55 C 164.18 126.77 176.57 130.42 187.56 136.56 C 199.32 142.43 209.20 151.45 217.61 161.44 C 226.48 173.34 234.31 186.15 245.00 196.58 C 242.80 199.36 240.60 202.15 238.41 204.94 C 225.48 200.54 213.30 194.22 201.26 187.83 C 173.54 173.01 147.80 154.61 124.50 133.53 C 112.35 123.41 100.84 112.55 89.24 101.81 C 74.29 86.60 60.30 70.32 48.71 52.38 C 44.05 45.41 41.01 37.57 37.51 30.00 C 37.77 29.74 38.30 29.23 38.56 28.98 C 39.83 28.98 41.10 28.99 42.38 29.00 C 43.03 29.33 44.33 29.98 44.98 30.30 C 48.64 36.45 51.08 43.19 54.31 49.56 C 57.06 55.05 60.16 60.37 63.33 65.63 C 67.01 71.91 72.40 76.88 77.12 82.35 C 75.88 74.52 74.45 66.40 76.59 58.60 C 78.12 53.86 80.62 49.51 83.35 45.37 C 85.68 43.35 88.01 41.32 90.36 39.32 C 89.57 45.42 88.99 51.61 90.41 57.67 C 91.54 61.20 93.38 64.43 95.44 67.50 C 96.15 65.45 96.87 63.41 97.61 61.38 C 99.99 54.09 103.50 47.13 108.10 40.97 C 114.37 32.91 122.62 26.61 131.40 21.49 C 137.15 18.10 143.59 16.18 149.58 13.29 C 152.20 12.43 154.80 11.48 157.44 10.67 C 166.34 7.27 175.50 4.45 183.97 0.00 Z" />
<path fill="#ffffff" d=" M 184.43 0.00 L 300.00 0.00 L 300.00 300.00 L 120.11 300.00 C 117.75 289.48 116.44 278.74 116.32 267.96 C 116.73 263.71 116.95 259.44 117.24 255.18 C 119.75 239.76 124.32 224.66 125.34 209.02 C 127.23 196.62 125.41 183.95 121.73 172.05 C 123.99 174.54 125.80 177.38 127.84 180.05 C 136.68 190.47 148.29 198.18 160.66 203.82 C 161.08 203.91 161.94 204.10 162.37 204.19 C 164.68 205.35 167.04 206.43 169.45 207.36 C 170.80 207.81 172.16 208.25 173.51 208.71 C 192.05 214.97 211.73 216.47 231.13 217.26 C 237.68 218.39 244.38 217.61 250.92 218.79 C 259.18 218.99 267.41 219.72 275.59 220.86 C 263.89 214.86 254.00 206.05 245.00 196.58 C 234.31 186.15 226.48 173.34 217.61 161.44 C 209.20 151.45 199.32 142.43 187.56 136.56 C 176.57 130.42 164.18 126.77 151.56 126.55 C 160.25 125.58 169.11 125.34 177.51 122.67 C 194.60 118.52 210.59 110.36 224.07 99.09 C 235.87 88.70 249.69 80.86 264.05 74.58 L 263.89 74.12 C 264.49 74.03 265.71 73.86 266.31 73.77 C 272.48 71.08 279.08 69.58 285.59 67.99 C 277.02 66.00 268.15 66.19 259.49 64.74 C 243.95 62.92 228.34 61.72 212.85 59.38 C 206.26 58.62 199.61 59.15 192.99 58.98 C 182.88 58.57 172.92 60.88 163.14 63.17 C 154.58 65.18 146.79 69.41 139.47 74.17 C 153.68 61.68 161.82 43.88 167.25 26.09 C 170.31 15.87 177.77 8.00 184.43 0.00 Z" />
<path fill="#b12515" d=" M 33.66 33.78 C 34.94 32.52 36.22 31.26 37.51 30.00 C 41.01 37.57 44.05 45.41 48.71 52.38 C 60.30 70.32 74.29 86.60 89.24 101.81 C 100.84 112.55 112.35 123.41 124.50 133.53 C 147.80 154.61 173.54 173.01 201.26 187.83 C 213.30 194.22 225.48 200.54 238.41 204.94 C 240.60 202.15 242.80 199.36 245.00 196.58 C 254.00 206.05 263.89 214.86 275.59 220.86 C 267.41 219.72 259.18 218.99 250.92 218.79 C 244.38 217.61 237.68 218.39 231.13 217.26 C 211.73 216.47 192.05 214.97 173.51 208.71 C 172.16 208.25 170.80 207.81 169.45 207.36 C 167.04 206.43 164.68 205.35 162.37 204.19 C 161.94 204.10 161.08 203.91 160.66 203.82 C 148.29 198.18 136.68 190.47 127.84 180.05 C 125.80 177.38 123.99 174.54 121.73 172.05 C 125.41 183.95 127.23 196.62 125.34 209.02 C 124.32 224.66 119.75 239.76 117.24 255.18 C 116.95 259.44 116.73 263.71 116.32 267.96 C 116.44 278.74 117.75 289.48 120.11 300.00 L 119.48 300.00 C 110.57 290.22 103.15 279.22 95.34 268.57 C 91.58 263.60 88.13 258.42 84.81 253.16 C 81.60 248.07 79.49 242.38 76.17 237.37 C 76.07 236.95 75.87 236.11 75.77 235.69 C 74.16 232.33 72.70 228.91 71.27 225.48 C 70.38 222.17 69.33 218.90 68.63 215.54 C 67.19 209.80 65.66 203.97 65.97 197.99 C 66.27 189.49 65.04 180.77 67.65 172.51 C 68.20 170.72 68.74 168.92 69.20 167.11 C 66.05 171.34 63.64 176.09 60.21 180.13 C 55.28 185.64 49.94 190.87 43.56 194.69 C 33.19 202.25 21.83 208.59 12.61 217.62 C 18.85 197.37 21.84 176.32 25.58 155.50 C 26.14 153.53 26.72 151.56 27.25 149.58 C 28.02 147.14 28.78 144.69 29.73 142.32 C 29.84 141.88 30.06 141.01 30.16 140.57 C 36.47 126.29 47.05 113.42 61.22 106.44 C 59.63 105.38 58.03 104.32 56.48 103.20 C 50.30 100.41 43.47 100.78 36.87 101.23 C 42.60 95.32 49.63 90.82 57.54 88.45 C 62.22 87.78 66.96 88.05 71.66 87.93 C 67.45 83.95 63.27 79.92 59.28 75.72 C 50.48 65.72 43.31 54.36 37.26 42.52 C 36.10 39.59 34.83 36.70 33.66 33.78 Z" />
<path fill="#b12515" d=" M 259.49 64.74 C 268.15 66.19 277.02 66.00 285.59 67.99 C 279.08 69.58 272.48 71.08 266.31 73.77 C 265.71 73.86 264.49 74.03 263.89 74.12 C 262.62 70.90 261.05 67.81 259.49 64.74 Z" />
<path fill="#ffffff" d=" M 121.11 170.15 C 124.41 170.41 119.49 173.08 121.11 170.15 Z" />
</svg>
